<svg version="1.1" id="Layer_1" xmlns="http://www.w3.org/2000/svg" xmlns:xlink="http://www.w3.org/1999/xlink" x="0px" y="0px"
	 width="100%" viewBox="0 0 512 512" enable-background="new 0 0 512 512" xml:space="preserve">
<path fill="#000000" opacity="1.000000" stroke="none" 
	d="
M227.531342,1.000000 
	C230.211639,3.526749 233.328751,2.373365 236.013229,2.917146 
	C263.635315,8.512403 289.646088,18.209629 313.009491,34.128422 
	C326.736511,43.481403 339.156006,54.371273 350.371796,66.821152 
	C364.325317,82.309952 375.505829,99.444862 384.044708,118.293472 
	C392.639160,137.264786 398.095032,157.163254 400.467224,177.955688 
	C401.929230,190.769882 401.812195,203.605515 401.131287,216.333603 
	C400.019836,237.109818 395.322876,257.306946 387.137054,276.533173 
	C382.648132,287.076477 377.933014,297.545349 371.435974,307.066589 
	C369.500671,309.902740 369.991150,311.889954 372.452515,314.342468 
	C415.064453,356.801208 457.575439,399.361298 500.123657,441.884064 
	C505.962616,447.719543 510.297180,454.441193 512.815308,462.699249 
	C513.000000,469.354401 513.000000,475.708801 512.826843,482.839203 
	C509.178558,495.248260 502.055573,503.815918 491.430420,509.738953 
	C489.315216,510.918060 486.409180,510.534027 485.000000,513.000000 
	C477.645752,513.000000 470.291504,513.000000 462.468628,513.000000 
	C447.532074,508.020660 438.343658,496.339569 428.071777,486.098907 
	C390.795624,448.936096 353.617859,411.674591 316.387207,374.466095 
	C310.915253,368.997375 311.018494,369.277527 304.504089,373.143921 
	C282.179657,386.394012 258.287903,395.336853 232.550583,399.416901 
	C216.170731,402.013580 199.687103,401.978333 183.314545,401.083313 
	C165.076248,400.086304 147.354050,395.466888 130.214996,389.022858 
	C109.542114,381.250153 90.519684,370.404541 73.538895,356.357758 
	C55.649384,341.559265 40.663559,324.121124 28.607651,304.143280 
	C15.662666,282.692169 7.840660,259.426788 2.784822,235.075592 
	C2.391031,233.178925 3.314984,231.008881 1.307308,229.191650 
	C1.000000,210.645767 1.000000,192.291550 1.311196,173.277374 
	C1.905205,172.214050 2.392349,171.833847 2.441114,171.403900 
	C3.870085,158.805527 7.331543,146.718475 11.414419,134.763870 
	C20.802673,107.275154 35.719765,83.169724 55.751209,62.216354 
	C68.095222,49.304226 81.825867,38.074055 97.210625,28.917593 
	C112.998344,19.521307 129.669067,12.312417 147.430222,7.428407 
	C156.875977,4.830990 166.559723,3.497732 176.000000,1.000000 
	C193.020889,1.000000 210.041794,1.000000 227.531342,1.000000 
M361.119904,280.712616 
	C378.659515,245.701309 383.823547,208.690475 377.357513,170.326416 
	C371.389801,134.919128 355.437927,104.010880 330.716125,78.010147 
	C314.223389,60.664173 294.900116,47.032307 272.827545,37.293339 
	C242.932022,24.102695 211.837860,19.768650 179.520508,23.383116 
	C158.707626,25.710886 138.926590,31.800318 120.387238,41.384407 
	C100.366531,51.734291 82.587837,65.098213 67.648529,82.246223 
	C58.098289,93.208412 49.470634,104.768112 42.771839,117.577354 
	C25.453621,150.692764 18.939117,185.961441 23.392290,223.115005 
	C25.739456,242.697815 31.364645,261.426361 40.150120,279.045990 
	C50.677853,300.159790 64.505333,318.821350 82.451744,334.425476 
	C93.666557,344.176575 105.507362,352.939209 118.672699,359.714752 
	C136.458694,368.868378 155.206589,375.046448 175.165451,377.927917 
	C197.821915,381.198822 220.246704,380.523712 242.335083,375.154358 
	C271.182526,368.141998 296.772766,354.724091 319.140442,334.833649 
	C336.401733,319.483948 350.059204,301.654388 361.119904,280.712616 
M392.785522,377.285919 
	C387.820251,384.270782 381.059113,389.468536 374.833405,395.184448 
	C372.226349,397.578094 372.322571,399.272095 374.897919,401.655487 
	C379.294769,405.724609 383.363007,410.147125 387.605927,414.384552 
	C411.295563,438.043884 434.992340,461.696075 458.695862,485.341492 
	C464.445587,491.077118 471.260956,493.544800 479.106506,490.767822 
	C486.622955,488.107361 492.420502,480.454773 491.741486,471.325317 
	C491.263580,464.899658 487.499481,460.646301 483.407837,456.539124 
	C456.838074,429.868103 430.191467,403.273621 403.574036,376.650085 
	C398.518738,371.593689 398.526886,371.585541 392.785522,377.285919 
M343.272797,342.771027 
	C339.472473,346.233154 335.679138,349.702972 331.868622,353.153839 
	C330.184265,354.679230 329.343964,356.158478 331.352875,358.152130 
	C338.679047,365.422638 345.938324,372.760529 353.231445,380.064392 
	C354.679779,381.514862 356.202087,382.140076 358.028320,380.562286 
	C366.785431,372.996185 374.786438,364.701965 382.566956,355.629730 
	C374.255585,347.333466 366.124695,339.248505 358.037170,331.120453 
	C356.237946,329.312256 354.846405,329.988525 353.438385,331.556305 
	C350.225464,335.133789 347.000458,338.700409 343.272797,342.771027 
z"/>
<path fill="#000000" opacity="1.000000" stroke="none" 
	d="
M96.964531,77.895859 
	C107.339401,69.764236 117.727692,62.299446 129.364746,56.797077 
	C150.938065,46.596519 173.450684,40.921574 197.534927,40.479179 
	C224.887802,39.976746 250.557922,45.738644 274.815247,57.952198 
	C287.903625,64.542191 299.650726,73.129181 310.477875,83.142456 
	C325.809967,97.322060 337.861084,113.788429 346.685455,132.583939 
	C353.696960,147.518127 358.349243,163.254272 360.314148,179.683716 
	C364.364380,213.549438 359.227142,245.876801 343.289948,276.176910 
	C336.863708,288.394653 328.822754,299.528717 319.407837,309.753754 
	C300.692383,330.079590 278.422333,344.769196 252.219040,353.410797 
	C238.013672,358.095642 223.484863,360.961090 208.415237,361.445770 
	C188.121048,362.098511 168.309891,359.907227 149.097855,353.281708 
	C127.322853,345.772339 108.078392,334.184174 91.125099,318.401947 
	C65.560822,294.603577 49.863575,265.436401 43.077038,231.551758 
	C39.380428,213.094910 39.455078,194.316513 42.351761,175.568176 
	C45.777813,153.393646 53.431061,132.922623 65.488853,114.037209 
	C74.118576,100.520981 84.776825,88.788612 96.964531,77.895859 
M327.848694,144.524872 
	C318.359161,123.540550 304.665649,105.775360 286.442627,91.716576 
	C255.776520,68.058090 221.041550,58.402027 182.631241,63.433399 
	C145.295624,68.323990 114.751144,86.058220 91.691628,115.606468 
	C65.876778,148.685364 56.806499,186.547333 64.703911,227.724792 
	C71.172478,261.452209 88.581245,289.267883 115.701836,310.332672 
	C148.850464,336.079529 186.657303,345.285339 227.805038,337.251984 
	C261.422668,330.688751 289.121460,313.362854 310.414551,286.272400 
	C327.065338,265.088196 336.822266,240.861374 339.400055,214.246796 
	C341.701935,190.480545 338.163513,167.199371 327.848694,144.524872 
z"/>
<path fill="#000000" opacity="1.000000" stroke="none" 
	d="
M288.115601,116.902451 
	C299.399902,128.483841 307.616028,141.621002 313.292053,156.325424 
	C315.890167,163.056152 313.364807,169.696274 307.749359,171.962738 
	C301.983063,174.290085 295.706482,170.728409 292.696594,163.902924 
	C277.714233,129.927750 252.056931,109.592941 215.324280,103.146278 
	C209.728561,102.164215 204.091232,102.992889 198.541000,101.463234 
	C192.591309,99.823471 190.035416,96.199348 190.679703,88.670181 
	C191.086639,83.914940 194.864349,80.926384 200.264786,80.634315 
	C219.475815,79.595314 237.517120,84.323074 254.606644,92.461906 
	C267.086456,98.405373 278.336426,106.435905 288.115601,116.902451 
z"/>
<path fill="#000000" opacity="1.000000" stroke="none" 
	d="
M317.426086,192.279419 
	C322.566803,195.995209 322.000885,201.043625 320.781342,205.614502 
	C319.946228,208.744568 317.148071,211.077667 313.371796,211.328659 
	C308.738831,211.636597 304.386475,211.419266 301.722595,206.689621 
	C299.831940,203.332825 300.355957,196.357666 302.865662,193.567123 
	C305.880035,190.215439 311.821259,189.572708 317.426086,192.279419 
z"/>
</svg>